<svg xmlns="http://www.w3.org/2000/svg" version="1.1" xmlns:xlink="http://www.w3.org/1999/xlink" xmlns:svgjs="http://svgjs.dev/svgjs" width="2000" height="1500" viewBox="0 0 2000 1500"><rect width="2000" height="1500" fill="#ffffff"></rect><g transform="matrix(0.75,0,0,0.75,249.090909090909,436.90982840277707)"><svg viewBox="0 0 396 165" data-background-color="#ffffff" preserveAspectRatio="xMidYMid meet" height="833" width="2000" xmlns="http://www.w3.org/2000/svg" xmlns:xlink="http://www.w3.org/1999/xlink"><g id="tight-bounds" transform="matrix(1,0,0,1,0.2400000000000091,0.18888085400847388)"><svg viewBox="0 0 395.52 164.62223829198305" height="164.62223829198305" width="395.52"><g><svg viewBox="0 0 395.52 164.62223829198305" height="164.62223829198305" width="395.52"><g><svg viewBox="0 0 649.105891645594 270.16905534792454" height="164.62223829198305" width="395.52"><g transform="matrix(1,0,0,1,253.5858916455941,79.86098050415094)"><svg viewBox="0 0 395.52 110.44709433962264" height="110.44709433962264" width="395.52"><g id="textblocktransform"><svg viewBox="0 0 395.52 110.44709433962264" height="110.44709433962264" width="395.52" id="textblock"><g><svg viewBox="0 0 395.52 110.44709433962264" height="110.44709433962264" width="395.52"><g transform="matrix(1,0,0,1,0,0)"><svg width="395.52" viewBox="2.5 -36.5 132.49 37" height="110.44709433962264" data-palette-color="url(#a9df2ade-ba57-42d9-b78b-e15900b02bf8)"></svg></g></svg></g></svg></g></svg></g><g><svg viewBox="0 0 227.51198340227336 270.16905534792454" height="270.16905534792454" width="227.51198340227336"><g><svg xmlns="http://www.w3.org/2000/svg" xmlns:xlink="http://www.w3.org/1999/xlink" version="1.1" x="0" y="0" viewBox="15.148 8.051 69.85300000000001 82.95" enable-background="new 0 0 100 100" xml:space="preserve" height="270.16905534792454" width="227.51198340227336" class="icon-icon-0" data-fill-palette-color="accent" id="icon-0"></svg></g></svg></g></svg></g></svg></g><defs></defs><mask id="4eb74927-fc63-4cec-8400-fe3239e18a88"><g id="SvgjsG6469"><svg viewBox="0 0 395.52 164.62223829198305" height="164.62223829198305" width="395.52"><g><svg viewBox="0 0 395.52 164.62223829198305" height="164.62223829198305" width="395.52"><g><svg viewBox="0 0 649.105891645594 270.16905534792454" height="164.62223829198305" width="395.52"><g transform="matrix(1,0,0,1,253.5858916455941,79.86098050415094)"><svg viewBox="0 0 395.52 110.44709433962264" height="110.44709433962264" width="395.52"><g id="SvgjsG6468"><svg viewBox="0 0 395.52 110.44709433962264" height="110.44709433962264" width="395.52" id="SvgjsSvg6467"><g><svg viewBox="0 0 395.52 110.44709433962264" height="110.44709433962264" width="395.52"><g transform="matrix(1,0,0,1,0,0)"><svg width="395.52" viewBox="2.5 -36.5 132.49 37" height="110.44709433962264" data-palette-color="url(#a9df2ade-ba57-42d9-b78b-e15900b02bf8)"><path d="M19.55 0.5L19.55 0.5Q15.85 0.5 12.73-0.88 9.6-2.25 7.3-4.73 5-7.2 3.75-10.58 2.5-13.95 2.5-18L2.5-18Q2.5-22.05 3.75-25.43 5-28.8 7.28-31.28 9.55-33.75 12.68-35.13 15.8-36.5 19.5-36.5L19.5-36.5Q23.55-36.5 26.78-34.85 30-33.2 32.08-30.2 34.15-27.2 34.65-23.2L34.65-23.2 30.55-23.2Q29.95-27.65 27.03-30.23 24.1-32.8 19.55-32.8L19.55-32.8Q15.7-32.8 12.8-30.93 9.9-29.05 8.3-25.73 6.7-22.4 6.7-18L6.7-18Q6.7-13.6 8.3-10.28 9.9-6.95 12.8-5.08 15.7-3.2 19.5-3.2L19.5-3.2Q24.15-3.2 27.13-5.8 30.1-8.4 30.65-12.8L30.65-12.8 34.75-12.8Q34.25-8.8 32.18-5.8 30.1-2.8 26.88-1.15 23.65 0.5 19.55 0.5ZM60.55 0L56.7 0Q56.5-0.85 56.42-1.95 56.35-3.05 56.35-4.75L56.35-4.75 56.1-4.75 56.1-16.95Q56.1-19.85 54.77-21.23 53.45-22.6 50.5-22.6L50.5-22.6Q47.6-22.6 45.87-21.43 44.15-20.25 43.95-18.1L43.95-18.1 40.1-18.1Q40.35-21.8 43.2-23.9 46.05-26 50.65-26L50.65-26Q55.4-26 57.7-23.75 60-21.5 60-17L60-17 60-4.75Q60-3.65 60.15-2.48 60.3-1.3 60.55 0L60.55 0ZM47.95 0.5L47.95 0.5Q44 0.5 41.67-1.43 39.35-3.35 39.35-6.7L39.35-6.7Q39.35-10.05 41.65-11.9 43.95-13.75 48.35-14.5L48.35-14.5 57.25-16 57.25-12.7 48.95-11.4Q46.15-10.95 44.7-9.9 43.25-8.85 43.25-6.85L43.25-6.85Q43.25-4.9 44.57-3.9 45.9-2.9 48.5-2.9L48.5-2.9Q51.85-2.9 53.97-4.42 56.1-5.95 56.1-8.4L56.1-8.4 56.75-4.85Q55.95-2.3 53.62-0.9 51.3 0.5 47.95 0.5ZM71.7 0L67.7 0 67.7-25.5 71.45-25.5 71.45-19 71.7-19 71.7 0ZM71.7-13.3L71.7-13.3 71.05-19.35Q71.95-22.6 74.25-24.3 76.55-26 79.55-26L79.55-26Q80.8-26 81.25-25.8L81.25-25.8 81.25-21.95Q81-22.05 80.55-22.08 80.1-22.1 79.45-22.1L79.45-22.1Q75.65-22.1 73.67-19.83 71.7-17.55 71.7-13.3ZM108.74 0L104.99 0 104.99-5.95 105.49-5.8Q104.54-2.9 102.02-1.2 99.49 0.5 95.99 0.5L95.99 0.5Q92.54 0.5 89.97-1.15 87.39-2.8 85.97-5.75 84.54-8.7 84.54-12.65L84.54-12.65Q84.54-16.65 85.99-19.65 87.44-22.65 90.04-24.3 92.64-25.95 96.14-25.95L96.14-25.95Q99.74-25.95 102.19-24.2 104.64-22.45 105.54-19.25L105.54-19.25 104.74-19.15 104.74-36 108.74-36 108.74 0ZM96.74-3L96.74-3Q100.59-3 102.77-5.63 104.94-8.25 104.94-12.8L104.94-12.8Q104.94-17.25 102.74-19.85 100.54-22.45 96.74-22.45L96.74-22.45Q92.94-22.45 90.79-19.85 88.64-17.25 88.64-12.65L88.64-12.65Q88.64-8.15 90.79-5.58 92.94-3 96.74-3ZM125.39 0.5L125.39 0.5Q120.69 0.5 117.89-1.68 115.09-3.85 114.69-7.85L114.69-7.85 118.54-7.85Q118.89-5.4 120.69-4.1 122.49-2.8 125.49-2.8L125.49-2.8Q128.14-2.8 129.64-3.8 131.14-4.8 131.14-6.65L131.14-6.65Q131.14-7.95 130.29-8.93 129.44-9.9 126.89-10.55L126.89-10.55 122.79-11.6Q119.29-12.5 117.54-14.38 115.79-16.25 115.79-18.85L115.79-18.85Q115.79-22.15 118.24-24.08 120.69-26 124.89-26L124.89-26Q129.04-26 131.64-24 134.24-22 134.59-18.45L134.59-18.45 130.74-18.45Q130.39-20.5 128.84-21.6 127.29-22.7 124.74-22.7L124.74-22.7Q122.29-22.7 120.94-21.78 119.59-20.85 119.59-19.15L119.59-19.15Q119.59-17.85 120.57-16.9 121.54-15.95 123.84-15.3L123.84-15.3 127.84-14.2Q131.39-13.25 133.19-11.3 134.99-9.35 134.99-6.6L134.99-6.6Q134.99-3.25 132.44-1.38 129.89 0.5 125.39 0.5Z" opacity="1" transform="matrix(1,0,0,1,0,0)" fill="white" class="wordmark-text-0" id="SvgjsPath6466"></path></svg></g></svg></g></svg></g></svg></g><g><svg viewBox="0 0 227.51198340227336 270.16905534792454" height="270.16905534792454" width="227.51198340227336"><g><svg xmlns="http://www.w3.org/2000/svg" xmlns:xlink="http://www.w3.org/1999/xlink" version="1.1" x="0" y="0" viewBox="15.148 8.051 69.85300000000001 82.95" enable-background="new 0 0 100 100" xml:space="preserve" height="270.16905534792454" width="227.51198340227336" class="icon-icon-0" data-fill-palette-color="accent" id="SvgjsSvg6465"><g fill="black"><g fill="black"><path d="M56.623 29.88H21.697A6.55 6.55 0 0 0 15.148 36.429V84.452A6.55 6.55 0 0 0 21.697 91.001H56.623A6.55 6.55 0 0 0 63.172 84.452V36.428A6.55 6.55 0 0 0 56.623 29.88M67.537 18.966H32.611A6.55 6.55 0 0 0 26.062 25.515H60.988A6.55 6.55 0 0 1 67.537 32.064V80.087A6.55 6.55 0 0 0 74.086 73.538V25.514A6.55 6.55 0 0 0 67.537 18.966M78.451 8.051H43.526A6.55 6.55 0 0 0 36.977 14.6H71.903A6.55 6.55 0 0 1 78.452 21.149V69.172A6.55 6.55 0 0 0 85.001 62.623V14.6A6.55 6.55 0 0 0 78.451 8.051" fill="black"></path></g></g></svg></g></svg></g></svg></g></svg></g><defs><mask></mask></defs></svg><rect width="395.52" height="164.62223829198305" fill="black" stroke="none" visibility="hidden"></rect></g></mask><linearGradient x1="0" x2="1" y1="0.578" y2="0.595" id="a9df2ade-ba57-42d9-b78b-e15900b02bf8"><stop stop-color="#6ee2f5" offset="0"></stop><stop stop-color="#6454f0" offset="1"></stop></linearGradient><rect width="395.52" height="164.62223829198305" fill="url(#a9df2ade-ba57-42d9-b78b-e15900b02bf8)" mask="url(#4eb74927-fc63-4cec-8400-fe3239e18a88)" data-fill-palette-color="primary"></rect><mask id="6b3ba539-c213-405e-809f-f62bc7e1c180"><g id="SvgjsG6478"><svg viewBox="0 0 395.52 164.62223829198305" height="164.62223829198305" width="395.52"><g><svg viewBox="0 0 395.52 164.62223829198305" height="164.62223829198305" width="395.52"><g><svg viewBox="0 0 649.105891645594 270.16905534792454" height="164.62223829198305" width="395.52"><g transform="matrix(1,0,0,1,253.5858916455941,79.86098050415094)"><svg viewBox="0 0 395.52 110.44709433962264" height="110.44709433962264" width="395.52"><g id="SvgjsG6477"><svg viewBox="0 0 395.52 110.44709433962264" height="110.44709433962264" width="395.52" id="SvgjsSvg6476"><g><svg viewBox="0 0 395.52 110.44709433962264" height="110.44709433962264" width="395.52"><g transform="matrix(1,0,0,1,0,0)"><svg width="395.52" viewBox="2.5 -36.5 132.49 37" height="110.44709433962264" data-palette-color="url(#a9df2ade-ba57-42d9-b78b-e15900b02bf8)"></svg></g></svg></g></svg></g></svg></g><g><svg viewBox="0 0 227.51198340227336 270.16905534792454" height="270.16905534792454" width="227.51198340227336"><g><svg xmlns="http://www.w3.org/2000/svg" xmlns:xlink="http://www.w3.org/1999/xlink" version="1.1" x="0" y="0" viewBox="15.148 8.051 69.85300000000001 82.95" enable-background="new 0 0 100 100" xml:space="preserve" height="270.16905534792454" width="227.51198340227336" class="icon-icon-0" data-fill-palette-color="accent" id="SvgjsSvg6475"><g fill="white"><g fill="white"><path d="M56.623 29.88H21.697A6.55 6.55 0 0 0 15.148 36.429V84.452A6.55 6.55 0 0 0 21.697 91.001H56.623A6.55 6.55 0 0 0 63.172 84.452V36.428A6.55 6.55 0 0 0 56.623 29.88M67.537 18.966H32.611A6.55 6.55 0 0 0 26.062 25.515H60.988A6.55 6.55 0 0 1 67.537 32.064V80.087A6.55 6.55 0 0 0 74.086 73.538V25.514A6.55 6.55 0 0 0 67.537 18.966M78.451 8.051H43.526A6.55 6.55 0 0 0 36.977 14.6H71.903A6.55 6.55 0 0 1 78.452 21.149V69.172A6.55 6.55 0 0 0 85.001 62.623V14.6A6.55 6.55 0 0 0 78.451 8.051" fill="white"></path></g></g></svg></g></svg></g></svg></g></svg></g><defs><mask></mask></defs><mask><g id="SvgjsG6474"><svg viewBox="0 0 395.52 164.62223829198305" height="164.62223829198305" width="395.52"><g><svg viewBox="0 0 395.52 164.62223829198305" height="164.62223829198305" width="395.52"><g><svg viewBox="0 0 649.105891645594 270.16905534792454" height="164.62223829198305" width="395.52"><g transform="matrix(1,0,0,1,253.5858916455941,79.86098050415094)"><svg viewBox="0 0 395.52 110.44709433962264" height="110.44709433962264" width="395.52"><g id="SvgjsG6473"><svg viewBox="0 0 395.52 110.44709433962264" height="110.44709433962264" width="395.52" id="SvgjsSvg6472"><g><svg viewBox="0 0 395.52 110.44709433962264" height="110.44709433962264" width="395.52"><g transform="matrix(1,0,0,1,0,0)"><svg width="395.52" viewBox="2.5 -36.5 132.49 37" height="110.44709433962264" data-palette-color="url(#a9df2ade-ba57-42d9-b78b-e15900b02bf8)"><path d="M19.55 0.5L19.55 0.5Q15.85 0.5 12.73-0.88 9.6-2.25 7.3-4.73 5-7.2 3.75-10.58 2.5-13.95 2.5-18L2.5-18Q2.5-22.05 3.75-25.43 5-28.8 7.28-31.28 9.55-33.75 12.68-35.13 15.8-36.5 19.5-36.5L19.5-36.5Q23.55-36.5 26.78-34.85 30-33.2 32.08-30.2 34.15-27.2 34.65-23.2L34.65-23.2 30.55-23.2Q29.95-27.65 27.03-30.23 24.1-32.8 19.55-32.8L19.55-32.8Q15.7-32.8 12.8-30.93 9.9-29.05 8.3-25.73 6.7-22.4 6.7-18L6.7-18Q6.7-13.6 8.3-10.28 9.9-6.95 12.8-5.08 15.7-3.2 19.5-3.2L19.5-3.2Q24.15-3.2 27.13-5.8 30.1-8.4 30.65-12.8L30.65-12.8 34.75-12.8Q34.25-8.8 32.18-5.8 30.1-2.8 26.88-1.15 23.65 0.5 19.55 0.5ZM60.55 0L56.7 0Q56.5-0.85 56.42-1.95 56.35-3.05 56.35-4.75L56.35-4.75 56.1-4.75 56.1-16.95Q56.1-19.85 54.77-21.23 53.45-22.6 50.5-22.6L50.5-22.6Q47.6-22.6 45.87-21.43 44.15-20.25 43.95-18.1L43.95-18.1 40.1-18.1Q40.35-21.8 43.2-23.9 46.05-26 50.65-26L50.65-26Q55.4-26 57.7-23.75 60-21.5 60-17L60-17 60-4.75Q60-3.65 60.15-2.48 60.3-1.3 60.55 0L60.55 0ZM47.95 0.5L47.95 0.5Q44 0.5 41.67-1.43 39.35-3.35 39.35-6.7L39.35-6.7Q39.35-10.05 41.65-11.9 43.95-13.75 48.35-14.5L48.35-14.5 57.25-16 57.25-12.7 48.95-11.4Q46.15-10.95 44.7-9.9 43.25-8.85 43.25-6.85L43.25-6.85Q43.25-4.9 44.57-3.9 45.9-2.9 48.5-2.9L48.5-2.9Q51.85-2.9 53.97-4.42 56.1-5.95 56.1-8.4L56.1-8.4 56.75-4.85Q55.95-2.3 53.62-0.9 51.3 0.5 47.95 0.5ZM71.7 0L67.7 0 67.7-25.5 71.45-25.5 71.45-19 71.7-19 71.7 0ZM71.7-13.3L71.7-13.3 71.05-19.35Q71.95-22.6 74.25-24.3 76.55-26 79.55-26L79.55-26Q80.8-26 81.25-25.8L81.25-25.8 81.25-21.95Q81-22.05 80.55-22.08 80.1-22.1 79.45-22.1L79.45-22.1Q75.65-22.1 73.67-19.83 71.7-17.55 71.7-13.3ZM108.74 0L104.99 0 104.99-5.95 105.49-5.8Q104.54-2.9 102.02-1.2 99.49 0.5 95.99 0.5L95.99 0.5Q92.54 0.5 89.97-1.15 87.39-2.8 85.97-5.75 84.54-8.7 84.54-12.65L84.54-12.65Q84.54-16.65 85.99-19.65 87.44-22.65 90.04-24.3 92.64-25.95 96.14-25.95L96.14-25.95Q99.74-25.95 102.19-24.2 104.64-22.45 105.54-19.25L105.54-19.25 104.74-19.15 104.74-36 108.74-36 108.74 0ZM96.74-3L96.74-3Q100.59-3 102.77-5.63 104.94-8.25 104.94-12.8L104.94-12.8Q104.94-17.25 102.74-19.85 100.54-22.45 96.74-22.45L96.74-22.45Q92.94-22.45 90.79-19.85 88.64-17.25 88.64-12.65L88.64-12.65Q88.64-8.15 90.79-5.58 92.94-3 96.74-3ZM125.39 0.5L125.39 0.5Q120.69 0.5 117.89-1.68 115.09-3.85 114.69-7.85L114.69-7.85 118.54-7.85Q118.89-5.4 120.69-4.1 122.49-2.8 125.49-2.8L125.49-2.8Q128.14-2.8 129.64-3.8 131.14-4.8 131.14-6.65L131.14-6.65Q131.14-7.95 130.29-8.93 129.44-9.9 126.89-10.55L126.89-10.55 122.79-11.6Q119.29-12.5 117.54-14.38 115.79-16.25 115.79-18.85L115.79-18.85Q115.79-22.15 118.24-24.08 120.69-26 124.89-26L124.89-26Q129.04-26 131.64-24 134.24-22 134.59-18.45L134.59-18.45 130.74-18.45Q130.39-20.5 128.84-21.6 127.29-22.7 124.74-22.7L124.74-22.7Q122.29-22.7 120.94-21.78 119.59-20.85 119.59-19.15L119.59-19.15Q119.59-17.85 120.57-16.9 121.54-15.95 123.84-15.3L123.84-15.3 127.84-14.2Q131.39-13.25 133.19-11.3 134.99-9.35 134.99-6.6L134.99-6.6Q134.99-3.25 132.44-1.38 129.89 0.5 125.39 0.5Z" opacity="1" transform="matrix(1,0,0,1,0,0)" fill="black" class="wordmark-text-0" id="SvgjsPath6471"></path></svg></g></svg></g></svg></g></svg></g><g><svg viewBox="0 0 227.51198340227336 270.16905534792454" height="270.16905534792454" width="227.51198340227336"><g><svg xmlns="http://www.w3.org/2000/svg" xmlns:xlink="http://www.w3.org/1999/xlink" version="1.1" x="0" y="0" viewBox="15.148 8.051 69.85300000000001 82.95" enable-background="new 0 0 100 100" xml:space="preserve" height="270.16905534792454" width="227.51198340227336" class="icon-icon-0" data-fill-palette-color="accent" id="SvgjsSvg6470"><g fill="black"><g fill="black"><path d="M56.623 29.88H21.697A6.55 6.55 0 0 0 15.148 36.429V84.452A6.55 6.55 0 0 0 21.697 91.001H56.623A6.55 6.55 0 0 0 63.172 84.452V36.428A6.55 6.55 0 0 0 56.623 29.88M67.537 18.966H32.611A6.55 6.55 0 0 0 26.062 25.515H60.988A6.55 6.55 0 0 1 67.537 32.064V80.087A6.55 6.55 0 0 0 74.086 73.538V25.514A6.55 6.55 0 0 0 67.537 18.966M78.451 8.051H43.526A6.55 6.55 0 0 0 36.977 14.6H71.903A6.55 6.55 0 0 1 78.452 21.149V69.172A6.55 6.55 0 0 0 85.001 62.623V14.6A6.55 6.55 0 0 0 78.451 8.051" fill="black"></path></g></g></svg></g></svg></g></svg></g></svg></g><defs><mask></mask></defs></svg><rect width="395.52" height="164.62223829198305" fill="black" stroke="none" visibility="hidden"></rect></g></mask></svg><rect width="395.52" height="164.62223829198305" fill="black" stroke="none" visibility="hidden"></rect></g></mask><linearGradient x1="0" x2="1" y1="0.578" y2="0.595" id="186cf8bd-a317-4c1d-b8ad-e547179b45bb"><stop stop-color="#6ee2f5" offset="0"></stop><stop stop-color="#6454f0" offset="1"></stop></linearGradient><rect width="395.52" height="164.62223829198305" fill="url(#186cf8bd-a317-4c1d-b8ad-e547179b45bb)" mask="url(#6b3ba539-c213-405e-809f-f62bc7e1c180)" data-fill-palette-color="accent"></rect></svg><rect width="395.52" height="164.62223829198305" fill="none" stroke="none" visibility="hidden"></rect></g></svg></g></svg>