<svg xmlns="http://www.w3.org/2000/svg" version="1.1" xmlns:xlink="http://www.w3.org/1999/xlink" xmlns:svgjs="http://svgjs.dev/svgjs" width="128" height="128" viewBox="0 0 128 128"><g transform="matrix(0.8046875,0,0,0.8046875,12.372409909909905,5.068321572580643)"><svg viewBox="0 0 135 155" data-background-color="#ffffff" preserveAspectRatio="xMidYMid meet" height="146" width="128" xmlns="http://www.w3.org/2000/svg" xmlns:xlink="http://www.w3.org/1999/xlink"><g id="tight-bounds" transform="matrix(1,0,0,1,0.16722972972974048,0.25)"><svg viewBox="0 0 134.66554054054052 154.5" height="154.5" width="134.66554054054052"><g><svg viewBox="0 0 134.66554054054052 154.5" height="154.5" width="134.66554054054052"><g><svg viewBox="0 0 134.66554054054052 154.5" height="154.5" width="134.66554054054052"><g id="textblocktransform"><svg viewBox="0 0 134.66554054054052 154.5" height="154.5" width="134.66554054054052" id="textblock"><g><svg viewBox="0 0 134.66554054054052 154.5" height="154.5" width="134.66554054054052"><g transform="matrix(1,0,0,1,0,0)"><svg width="134.66554054054052" viewBox="2.5 -36.5 32.25 37" height="154.5" data-palette-color="url(#040fb608-3258-411a-a432-34c55f01c780)"></svg></g></svg></g></svg></g></svg></g></svg></g><defs></defs><mask id="97f630fa-dc9f-4626-b19e-d1edb295de78"><g id="SvgjsG2662"><svg viewBox="0 0 134.66554054054052 154.5" height="154.5" width="134.66554054054052"><g><svg viewBox="0 0 134.66554054054052 154.5" height="154.5" width="134.66554054054052"><g><svg viewBox="0 0 134.66554054054052 154.5" height="154.5" width="134.66554054054052"><g id="SvgjsG2661"><svg viewBox="0 0 134.66554054054052 154.5" height="154.5" width="134.66554054054052" id="SvgjsSvg2660"><g><svg viewBox="0 0 134.66554054054052 154.5" height="154.5" width="134.66554054054052"><g transform="matrix(1,0,0,1,0,0)"><svg width="134.66554054054052" viewBox="2.5 -36.5 32.25 37" height="154.5" data-palette-color="url(#040fb608-3258-411a-a432-34c55f01c780)"><path d="M19.55 0.5L19.55 0.5Q15.85 0.5 12.73-0.88 9.6-2.25 7.3-4.73 5-7.2 3.75-10.58 2.5-13.95 2.5-18L2.5-18Q2.5-22.05 3.75-25.43 5-28.8 7.28-31.28 9.55-33.75 12.68-35.13 15.8-36.5 19.5-36.5L19.5-36.5Q23.55-36.5 26.78-34.85 30-33.2 32.08-30.2 34.15-27.2 34.65-23.2L34.65-23.2 30.55-23.2Q29.95-27.65 27.03-30.23 24.1-32.8 19.55-32.8L19.55-32.8Q15.7-32.8 12.8-30.93 9.9-29.05 8.3-25.73 6.7-22.4 6.7-18L6.7-18Q6.7-13.6 8.3-10.28 9.9-6.95 12.8-5.08 15.7-3.2 19.5-3.2L19.5-3.2Q24.15-3.2 27.13-5.8 30.1-8.4 30.65-12.8L30.65-12.8 34.75-12.8Q34.25-8.8 32.18-5.8 30.1-2.8 26.88-1.15 23.65 0.5 19.55 0.5Z" opacity="1" transform="matrix(1,0,0,1,0,0)" fill="white" class="wordmark-text-0" id="SvgjsPath2659"></path></svg></g></svg></g></svg></g></svg></g></svg></g><defs><mask></mask></defs></svg><rect width="134.66554054054052" height="154.5" fill="black" stroke="none" visibility="hidden"></rect></g></mask><linearGradient x1="0.054" x2="0.941" y1="0.5" y2="0.5" id="040fb608-3258-411a-a432-34c55f01c780"><stop stop-color="#8c8c8c" offset="0"></stop><stop stop-color="#e3e4e5" offset="0.498"></stop><stop stop-color="#8c8c8c" offset="1"></stop></linearGradient><rect width="134.66554054054052" height="154.5" fill="url(#040fb608-3258-411a-a432-34c55f01c780)" mask="url(#97f630fa-dc9f-4626-b19e-d1edb295de78)" data-fill-palette-color="primary"></rect></svg><rect width="134.66554054054052" height="154.5" fill="none" stroke="none" visibility="hidden"></rect></g></svg></g></svg>