<svg xmlns="http://www.w3.org/2000/svg" version="1.1" xmlns:xlink="http://www.w3.org/1999/xlink" xmlns:svgjs="http://svgjs.dev/svgjs" width="128" height="128" viewBox="0 0 128 128"><g transform="matrix(0.8046875,0,0,0.8046875,12.18130214425824,1.4228762253906027)"><svg viewBox="0 0 50 60" data-background-color="#ffffff" preserveAspectRatio="xMidYMid meet" height="153" width="128" xmlns="http://www.w3.org/2000/svg" xmlns:xlink="http://www.w3.org/1999/xlink"><g id="tight-bounds" transform="matrix(1,0,0,1,0.1547076969620207,0.49637100000001055)"><svg viewBox="0 0 49.69058460607595 59.00725799999999" height="59.00725799999999" width="49.69058460607595"><g><svg viewBox="0 0 49.69058460607595 59.00725799999999" height="59.00725799999999" width="49.69058460607595"><g><svg viewBox="0 0 49.69058460607595 59.00725799999999" height="59.00725799999999" width="49.69058460607595"><g><svg viewBox="0 0 49.69058460607595 59.00725799999999" height="59.00725799999999" width="49.69058460607595"><g id="textblocktransform"><svg viewBox="0 0 49.69058460607595 59.00725799999999" height="59.00725799999999" width="49.69058460607595" id="textblock"><g><svg viewBox="0 0 49.69058460607595 59.00725799999999" height="59.00725799999999" width="49.69058460607595"><g><svg viewBox="0 0 49.69058460607595 59.00725799999999" height="59.00725799999999" width="49.69058460607595"><g><svg xmlns="http://www.w3.org/2000/svg" xmlns:xlink="http://www.w3.org/1999/xlink" version="1.1" x="0" y="0" viewBox="15.148 8.051 69.85300000000001 82.95" enable-background="new 0 0 100 100" xml:space="preserve" height="59.00725799999999" width="49.69058460607595" class="icon-icon-0" data-fill-palette-color="accent" id="icon-0"></svg></g></svg></g></svg></g></svg></g></svg></g></svg></g></svg></g><defs></defs><mask id="38bb3cbd-13de-46ed-87b2-fbc981760efc"><g id="SvgjsG2439"><svg viewBox="0 0 49.69058460607595 59.00725799999999" height="59.00725799999999" width="49.69058460607595"><g><svg viewBox="0 0 49.69058460607595 59.00725799999999" height="59.00725799999999" width="49.69058460607595"><g><svg viewBox="0 0 49.69058460607595 59.00725799999999" height="59.00725799999999" width="49.69058460607595"><g><svg viewBox="0 0 49.69058460607595 59.00725799999999" height="59.00725799999999" width="49.69058460607595"><g id="SvgjsG2438"><svg viewBox="0 0 49.69058460607595 59.00725799999999" height="59.00725799999999" width="49.69058460607595" id="SvgjsSvg2437"><g><svg viewBox="0 0 49.69058460607595 59.00725799999999" height="59.00725799999999" width="49.69058460607595"><g><svg viewBox="0 0 49.69058460607595 59.00725799999999" height="59.00725799999999" width="49.69058460607595"><g><svg xmlns="http://www.w3.org/2000/svg" xmlns:xlink="http://www.w3.org/1999/xlink" version="1.1" x="0" y="0" viewBox="15.148 8.051 69.85300000000001 82.95" enable-background="new 0 0 100 100" xml:space="preserve" height="59.00725799999999" width="49.69058460607595" class="icon-icon-0" data-fill-palette-color="accent" id="SvgjsSvg2436"><g fill="white"><g fill="white"><path d="M56.623 29.88H21.697A6.55 6.55 0 0 0 15.148 36.429V84.452A6.55 6.55 0 0 0 21.697 91.001H56.623A6.55 6.55 0 0 0 63.172 84.452V36.428A6.55 6.55 0 0 0 56.623 29.88M67.537 18.966H32.611A6.55 6.55 0 0 0 26.062 25.515H60.988A6.55 6.55 0 0 1 67.537 32.064V80.087A6.55 6.55 0 0 0 74.086 73.538V25.514A6.55 6.55 0 0 0 67.537 18.966M78.451 8.051H43.526A6.55 6.55 0 0 0 36.977 14.6H71.903A6.55 6.55 0 0 1 78.452 21.149V69.172A6.55 6.55 0 0 0 85.001 62.623V14.6A6.55 6.55 0 0 0 78.451 8.051" fill="white"></path></g></g></svg></g></svg></g></svg></g></svg></g></svg></g></svg></g></svg></g><defs><mask></mask></defs></svg><rect width="49.69058460607595" height="59.00725799999999" fill="black" stroke="none" visibility="hidden"></rect></g></mask><linearGradient x1="0" x2="1" y1="0.578" y2="0.595" id="e9857af8-680f-4e14-abee-77bf5947f1f9"><stop stop-color="#6ee2f5" offset="0"></stop><stop stop-color="#6454f0" offset="1"></stop></linearGradient><rect width="49.69058460607595" height="59.00725799999999" fill="url(#e9857af8-680f-4e14-abee-77bf5947f1f9)" mask="url(#38bb3cbd-13de-46ed-87b2-fbc981760efc)" data-fill-palette-color="accent"></rect></svg><rect width="49.69058460607595" height="59.00725799999999" fill="none" stroke="none" visibility="hidden"></rect></g></svg></g></svg>